<svg xmlns="http://www.w3.org/2000/svg" viewBox="0 0 24 24" width="24" height="24" fill="#ffffff">
  <path d="M19.365 9.89c.50 0 .907.41.907.91s-.41.909-.906.909H17.35v1.061h2.015c.5 0 .906.41.906.909s-.41.909-.906.909H16.44c-.5 0-.909-.41-.909-.909V8.821c0-.5.41-.91.91-.91h2.925c.5 0 .906.41.906.91s-.41.909-.906.909H17.35v1.061h2.015zM7.331 14.587c.5 0 .909-.409.909-.908V8.82c0-.5-.41-.909-.91-.909s-.909.41-.909.91v4.858c0 .5.41.909.91.909zm5.452-5.767v4.858c0 .5-.409.909-.909.909s-.909-.41-.909-.91v-2.89l-1.582 2.176c-.178.24-.451.38-.741.38-.293 0-.568-.142-.745-.384l-1.594-2.171v2.889c0 .5-.41.909-.91.909s-.909-.41-.909-.91V8.82c0-.38.239-.727.6-.854.36-.127.764-.01 1.02.293l2.536 3.45 2.53-3.45c.173-.206.418-.327.681-.327.537 0 .932.432.932.888zM24 10.748C24 5.23 18.617.75 12 .75S0 5.229 0 10.748c0 4.918 4.262 9.039 10.02 9.815.39.084.923.258 1.057.592.12.302.079.774.039 1.079l-.171.942c-.54.302-.248 1.175 1.01.641a35.45 35.45 0 0 0 8.552-6.394A9.7 9.7 0 0 0 24 10.75z"/>
</svg> 